<svg width="43" height="31" viewBox="0 0 43 31" fill="none" xmlns="http://www.w3.org/2000/svg">
<path fill-rule="evenodd" clip-rule="evenodd" d="M5.152 0H1.91667C1.40834 0 0.920823 0.201934 0.561379 0.561379C0.201934 0.920824 0 1.40833 0 1.91667V1.99333L21.0833 17.3861L42.1667 1.99525V1.91667C42.1667 1.40833 41.9647 0.920824 41.6053 0.561379C41.2458 0.201934 40.7583 0 40.25 0H37.0147L21.0833 11.3467L5.152 0ZM32.0601 0L21.0833 7.82L10.1066 0H32.0601ZM42.1667 5.5545L36.8958 9.40125V30.6667H40.25C40.7583 30.6667 41.2458 30.4647 41.6053 30.1053C41.9647 29.7458 42.1667 29.2583 42.1667 28.75V5.5545ZM34.0208 30.6667V11.5L21.0833 20.9453L8.14583 11.5019V30.6667H34.0208ZM5.27083 30.6667V9.40125L0 5.5545V28.75C0 29.2583 0.201934 29.7458 0.561379 30.1053C0.920823 30.4647 1.40834 30.6667 1.91667 30.6667H5.27083Z" fill="black"/>
</svg>
