<svg width="55" height="55" viewBox="0 0 55 55" fill="none" xmlns="http://www.w3.org/2000/svg">
<path d="M29.8558 4.5835C32.434 4.59037 33.7425 4.60412 34.8723 4.6362L35.3169 4.65225C35.8302 4.67058 36.3367 4.6935 36.9485 4.721C39.3869 4.83558 41.0506 5.22058 42.5104 5.78662C44.0229 6.3687 45.2971 7.15704 46.5713 8.42891C47.737 9.57413 48.6388 10.96 49.2135 12.4897C49.7796 13.9495 50.1646 15.6133 50.2792 18.0539C50.3067 18.6635 50.3296 19.17 50.3479 19.6856L50.3617 20.1302C50.396 21.2577 50.4098 22.5662 50.4144 25.1443L50.4167 26.8539V29.856C50.4222 31.5275 50.4047 33.1991 50.364 34.8702L50.3502 35.3147C50.3319 35.8304 50.309 36.3368 50.2815 36.9464C50.1669 39.387 49.7773 41.0485 49.2135 42.5106C48.6388 44.0403 47.737 45.4262 46.5713 46.5714C45.426 47.7372 44.0402 48.6389 42.5104 49.2137C41.0506 49.7797 39.3869 50.1647 36.9485 50.2793L35.3169 50.3481L34.8723 50.3618C33.7425 50.3939 32.434 50.41 29.8558 50.4145L28.1462 50.4168H25.1465C23.4741 50.4227 21.8018 50.4052 20.13 50.3641L19.6854 50.3504C19.1414 50.3298 18.5975 50.3061 18.0538 50.2793C15.6154 50.1647 13.9517 49.7797 12.4896 49.2137C10.9607 48.6386 9.5756 47.7369 8.43104 46.5714C7.26446 45.4264 6.36192 44.0405 5.78646 42.5106C5.22042 41.0508 4.83542 39.387 4.72083 36.9464L4.65208 35.3147L4.64063 34.8702C4.59838 33.1991 4.57928 31.5276 4.58333 29.856V25.1443C4.57699 23.4728 4.5938 21.8012 4.63375 20.1302L4.64979 19.6856C4.66813 19.17 4.69104 18.6635 4.71854 18.0539C4.83313 15.6133 5.21813 13.9518 5.78417 12.4897C6.36097 10.9594 7.2651 9.57345 8.43333 8.42891C9.57723 7.26371 10.9615 6.362 12.4896 5.78662C13.9517 5.22058 15.6131 4.83558 18.0538 4.721C18.6633 4.6935 19.1721 4.67058 19.6854 4.65225L20.13 4.6385C21.8011 4.59778 23.4726 4.58021 25.1442 4.58579L29.8558 4.5835ZM27.5 16.0418C24.4611 16.0418 21.5466 17.249 19.3977 19.3979C17.2489 21.5468 16.0417 24.4612 16.0417 27.5002C16.0417 30.5391 17.2489 33.4536 19.3977 35.6024C21.5466 37.7513 24.4611 38.9585 27.5 38.9585C30.5389 38.9585 33.4534 37.7513 35.6023 35.6024C37.7511 33.4536 38.9583 30.5391 38.9583 27.5002C38.9583 24.4612 37.7511 21.5468 35.6023 19.3979C33.4534 17.249 30.5389 16.0418 27.5 16.0418ZM27.5 20.6252C28.4028 20.625 29.2969 20.8027 30.131 21.1481C30.9652 21.4934 31.7232 21.9997 32.3617 22.638C33.0002 23.2763 33.5067 24.0341 33.8524 24.8682C34.198 25.7022 34.376 26.5962 34.3761 27.499C34.3763 28.4019 34.1986 29.2959 33.8533 30.1301C33.5079 30.9642 33.0016 31.7222 32.3633 32.3607C31.725 32.9992 30.9672 33.5058 30.1332 33.8514C29.2991 34.197 28.4051 34.375 27.5023 34.3752C25.6789 34.3752 23.9302 33.6508 22.6409 32.3615C21.3516 31.0722 20.6273 29.3235 20.6273 27.5002C20.6273 25.6768 21.3516 23.9281 22.6409 22.6388C23.9302 21.3495 25.6789 20.6252 27.5023 20.6252M39.5335 12.6043C38.7738 12.6043 38.0452 12.9061 37.508 13.4433C36.9708 13.9806 36.669 14.7092 36.669 15.4689C36.669 16.2286 36.9708 16.9573 37.508 17.4945C38.0452 18.0317 38.7738 18.3335 39.5335 18.3335C40.2933 18.3335 41.0219 18.0317 41.5591 17.4945C42.0963 16.9573 42.3981 16.2286 42.3981 15.4689C42.3981 14.7092 42.0963 13.9806 41.5591 13.4433C41.0219 12.9061 40.2933 12.6043 39.5335 12.6043Z" fill="black"/>
</svg>
