<svg width="39" height="39" viewBox="0 0 39 39" fill="none" xmlns="http://www.w3.org/2000/svg">
<path d="M13.5072 2.33232C12.3632 0.712325 10.7792 -0.0176754 9.09924 0.000324619C7.50524 0.0163246 5.95324 0.698325 4.65724 1.60632C3.33536 2.53696 2.20821 3.71711 1.33924 5.08032C0.51924 6.37832 -0.0727606 7.91232 0.00723937 9.41032C0.393239 16.6163 4.44724 24.3163 10.1412 30.0143C15.8312 35.7063 23.4292 39.6623 31.1012 38.9063C32.6052 38.7583 34.0272 37.9923 35.1892 37.0163C36.3911 35.9983 37.3731 34.7462 38.0752 33.3363C38.7552 31.9523 39.1612 30.3563 38.9372 28.8023C38.7052 27.1823 37.7992 25.7343 36.1332 24.7743C35.7881 24.5741 35.4467 24.3674 35.1092 24.1543C34.8092 23.9683 34.4892 23.7663 34.1012 23.5343C33.3087 23.0457 32.4725 22.6319 31.6032 22.2983C30.7092 21.9723 29.6872 21.7583 28.6232 21.9043C27.5212 22.0563 26.4972 22.5763 25.6112 23.5083C24.9292 24.2283 23.9252 24.4523 22.5132 24.0443C21.0772 23.6283 19.4612 22.5963 18.0572 21.2003C16.6532 19.8083 15.5912 18.1803 15.1372 16.7103C14.6892 15.2543 14.8872 14.1843 15.5872 13.4463C16.5332 12.4503 17.0372 11.3423 17.1432 10.1703C17.2472 9.03032 16.9632 7.95832 16.5572 7.02233C15.9492 5.62432 14.9172 4.23432 14.1092 3.15032C13.9061 2.87931 13.7061 2.60596 13.5092 2.33032" fill="black"/>
</svg>
