<svg width="48" height="49" viewBox="0 0 48 49" fill="none" xmlns="http://www.w3.org/2000/svg">
<path d="M6.85714 0C3.075 0 0 3.08301 0 6.875V41.25C0 45.042 3.075 48.125 6.85714 48.125H17.3786V32.4629H11.7214V24.0625H17.3786V20.4424C17.3786 11.0859 21.6 6.74609 30.7714 6.74609C32.5071 6.74609 35.5071 7.08984 36.7393 7.43359V15.0391C36.0964 14.9746 34.9714 14.9316 33.5679 14.9316C29.0679 14.9316 27.3321 16.6396 27.3321 21.0762V24.0625H36.2893L34.7464 32.4629H27.3214V48.125H41.1429C44.925 48.125 48 45.042 48 41.25V6.875C48 3.08301 44.925 0 41.1429 0H6.85714Z" fill="black"/>
</svg>
