<svg width="48" height="48" viewBox="0 0 48 48" fill="none" xmlns="http://www.w3.org/2000/svg">
<g clip-path="url(#clip0_108_382)">
<path fill-rule="evenodd" clip-rule="evenodd" d="M12.5383 1.62836C16.2206 1.21693 20.064 0.856934 24 0.856934C27.936 0.856934 31.7795 1.21693 35.4618 1.62836C38.2605 1.94928 40.8676 3.21021 42.8568 5.205C44.846 7.19979 46.0996 9.81042 46.4126 12.6101C46.8069 16.2752 47.1429 20.0912 47.1429 23.9998C47.1429 27.9084 46.8069 31.7244 46.4126 35.3895C46.0996 38.1892 44.846 40.7998 42.8568 42.7946C40.8676 44.7894 38.2605 46.0503 35.4618 46.3712C31.7795 46.7826 27.936 47.1426 24 47.1426C20.064 47.1426 16.2206 46.7826 12.5383 46.3712C9.73956 46.0503 7.13246 44.7894 5.14328 42.7946C3.15409 40.7998 1.9005 38.1892 1.58746 35.3895C1.19318 31.7244 0.857178 27.9084 0.857178 23.9998C0.857178 20.0912 1.19318 16.2752 1.58746 12.6101C1.9005 9.81042 3.15409 7.19979 5.14328 5.205C7.13246 3.21021 9.73956 1.94928 12.5383 1.62836ZM28.5669 9.88093C28.4485 9.36793 28.1454 8.91645 27.7155 8.61263C27.2855 8.30881 26.7587 8.17392 26.2356 8.23369C25.7125 8.29346 25.2298 8.5437 24.8794 8.93668C24.5291 9.32967 24.3356 9.83788 24.336 10.3644V30.1712C24.336 31.2236 24.024 32.2524 23.4393 33.1275C22.8546 34.0025 22.0235 34.6846 21.0512 35.0873C20.0789 35.4901 19.009 35.5954 17.9768 35.3901C16.9446 35.1848 15.9965 34.678 15.2523 33.9338C14.5081 33.1897 14.0013 32.2415 13.796 31.2093C13.5907 30.1771 13.6961 29.1072 14.0988 28.1349C14.5015 27.1626 15.1836 26.3315 16.0586 25.7469C16.9337 25.1622 17.9625 24.8501 19.0149 24.8501C19.5832 24.8501 20.1283 24.6243 20.5301 24.2224C20.932 23.8206 21.1577 23.2755 21.1577 22.7072C21.1577 22.1389 20.932 21.5939 20.5301 21.192C20.1283 20.7901 19.5832 20.5644 19.0149 20.5644C17.1148 20.5644 15.2574 21.1278 13.6776 22.1834C12.0978 23.239 10.8664 24.7394 10.1393 26.4948C9.41219 28.2503 9.22195 30.1819 9.59263 32.0454C9.96331 33.909 10.8783 35.6208 12.2218 36.9643C13.5654 38.3078 15.2771 39.2228 17.1407 39.5935C19.0042 39.9642 20.9359 39.7739 22.6913 39.0468C24.4467 38.3197 25.9471 37.0883 27.0027 35.5085C28.0583 33.9287 28.6217 32.0713 28.6217 30.1712V18.2055C30.6789 19.9541 33.3326 20.9141 36.4458 20.9141C37.0141 20.9141 37.5591 20.6883 37.961 20.2864C38.3628 19.8846 38.5886 19.3395 38.5886 18.7712C38.5886 18.2029 38.3628 17.6579 37.961 17.256C37.5591 16.8541 37.0141 16.6284 36.4458 16.6284C34.1829 16.6284 32.5029 15.9289 31.2652 14.8284C30.0035 13.7038 29.0675 12.0306 28.5669 9.88093Z" fill="black"/>
</g>
<defs>
<clipPath id="clip0_108_382">
<rect width="48" height="48" fill="white"/>
</clipPath>
</defs>
</svg>
